<?xml version="1.0" encoding="utf-8"?>
<!-- Generator: Adobe Illustrator 25.1.0, SVG Export Plug-In . SVG Version: 6.00 Build 0)  -->
<svg version="1.1" id="Bold" xmlns="http://www.w3.org/2000/svg" xmlns:xlink="http://www.w3.org/1999/xlink" x="0px" y="0px"
	 viewBox="0 0 14.3 14.6" style="enable-background:new 0 0 14.3 14.6;" xml:space="preserve">
<style type="text/css">
	.st0{fill:#CF191B;}
</style>
<path class="st0" d="M8.4,4.5h0.7V3.2c-0.1,0-0.6-0.1-1.1-0.1C7.1,3.2,6.3,3.8,6.3,5v1.1H5.2v1.4h1.2v3.6h1.4V7.6h1.1l0.2-1.4H7.8
	v-1C7.8,4.8,7.9,4.5,8.4,4.5L8.4,4.5z"/>
<path class="st0" d="M7.2,14.1c-3.8,0-6.9-3.1-6.9-6.9c0-3.8,3.1-6.9,6.9-6.9s6.9,3.1,6.9,6.9C14.1,11,11,14.1,7.2,14.1z M7.2,0.7
	c-3.6,0-6.5,2.9-6.5,6.5s2.9,6.5,6.5,6.5c3.6,0,6.5-2.9,6.5-6.5S10.8,0.7,7.2,0.7z"/>
</svg>
