<?xml version="1.0" encoding="utf-8"?>
<!-- Generator: Adobe Illustrator 25.1.0, SVG Export Plug-In . SVG Version: 6.00 Build 0)  -->
<svg version="1.1" id="Bold" xmlns="http://www.w3.org/2000/svg" xmlns:xlink="http://www.w3.org/1999/xlink" x="0px" y="0px"
	 viewBox="0 0 14.3 14.6" style="enable-background:new 0 0 14.3 14.6;" xml:space="preserve">
<style type="text/css">
	.st0{fill:#CF191B;}
</style>
<path class="st0" d="M7.2,14.1c-3.8,0-6.9-3.1-6.9-6.9c0-3.8,3.1-6.9,6.9-6.9s6.9,3.1,6.9,6.9C14.1,11,11,14.1,7.2,14.1z M7.2,0.7
	c-3.6,0-6.5,2.9-6.5,6.5s2.9,6.5,6.5,6.5c3.6,0,6.5-2.9,6.5-6.5S10.8,0.7,7.2,0.7z"/>
<g>
	<path class="st0" d="M7.2,5.3c-1,0-1.8,0.8-1.8,1.8c0,1,0.8,1.8,1.8,1.8C8.2,9,9,8.2,9,7.2C9,6.2,8.2,5.3,7.2,5.3L7.2,5.3z
		 M7.2,8.3C6.5,8.3,6,7.8,6,7.2S6.5,6,7.2,6s1.2,0.5,1.2,1.2C8.4,7.8,7.8,8.3,7.2,8.3z"/>
	<path class="st0" d="M8.6,3.6c-0.7,0-2.3,0-2.9,0c-0.6,0-1.1,0.2-1.5,0.6C3.6,4.9,3.6,5.8,3.6,7.2c0,1.4-0.1,2.3,0.6,2.9
		c0.7,0.7,1.6,0.6,2.9,0.6c1.4,0,1.8,0,2.3-0.2c0.7-0.3,1.2-0.8,1.2-1.9c0-0.7,0-2.3,0-2.9C10.6,4.5,10,3.7,8.6,3.6L8.6,3.6z
		 M9.7,9.7c-0.4,0.4-1.1,0.4-2.5,0.4c-1.5,0-2.1,0-2.5-0.4C4.2,9.2,4.3,8.4,4.3,7.2c0-1.6-0.2-2.8,1.5-2.9c0.4,0,0.5,0,1.4,0l0,0
		c1.6,0,2.8-0.2,2.9,1.5c0,0.4,0,0.5,0,1.4C10.1,8.6,10.1,9.2,9.7,9.7L9.7,9.7z"/>
	<circle class="st0" cx="9.1" cy="5.3" r="0.4"/>
</g>
</svg>
