<?xml version="1.0" encoding="utf-8"?>
<!-- Generator: Adobe Illustrator 25.1.0, SVG Export Plug-In . SVG Version: 6.00 Build 0)  -->
<svg version="1.1" id="Layer_1" xmlns="http://www.w3.org/2000/svg" xmlns:xlink="http://www.w3.org/1999/xlink" x="0px" y="0px"
	 viewBox="0 0 35.9 37.2" style="enable-background:new 0 0 35.9 37.2;" xml:space="preserve">
<style type="text/css">
	.st0{fill:#D01A1C;}
</style>
<g>
	<g>
		<path class="st0" d="M27.5,12.8c-0.7,0.3-1.4,0.5-2.2,0.6c0.8-0.5,1.4-1.2,1.6-2.1c-0.7,0.4-1.5,0.7-2.4,0.9
			c-0.7-0.7-1.7-1.2-2.7-1.2c-2.1,0-3.7,1.7-3.7,3.7c0,0.3,0,0.6,0.1,0.9c-3.1-0.2-5.9-1.6-7.7-3.9C10.1,12.3,10,13,10,13.7
			c0,1.3,0.7,2.4,1.7,3.1c-0.6,0-1.2-0.2-1.7-0.5c0,0,0,0,0,0c0,1.8,1.3,3.3,3,3.7c-0.3,0.1-0.6,0.1-1,0.1c-0.2,0-0.5,0-0.7-0.1
			c0.5,1.5,1.9,2.6,3.5,2.6c-1.3,1-2.9,1.6-4.6,1.6c-0.3,0-0.6,0-0.9-0.1c1.7,1.1,3.6,1.7,5.7,1.7c6.9,0,10.7-5.7,10.7-10.6
			c0-0.2,0-0.3,0-0.5C26.3,14.3,26.9,13.6,27.5,12.8z"/>
	</g>
</g>
<path class="st0" d="M18.3,35.3C9,35.3,1.5,27.8,1.5,18.5C1.5,9.2,9,1.7,18.3,1.7s16.8,7.6,16.8,16.8C35.2,27.8,27.6,35.3,18.3,35.3
	z M18.3,2.7C9.6,2.7,2.5,9.8,2.5,18.5s7.1,15.8,15.8,15.8c8.7,0,15.8-7.1,15.8-15.8S27.1,2.7,18.3,2.7z"/>
</svg>
