<?xml version="1.0" encoding="utf-8"?>
<!-- Generator: Adobe Illustrator 25.1.0, SVG Export Plug-In . SVG Version: 6.00 Build 0)  -->
<svg version="1.1" id="Layer_1" xmlns="http://www.w3.org/2000/svg" xmlns:xlink="http://www.w3.org/1999/xlink" x="0px" y="0px"
	 viewBox="0 0 14.3 14.5" style="enable-background:new 0 0 14.3 14.5;" xml:space="preserve">
<style type="text/css">
	.st0{fill:#D01A1C;}
</style>
<g>
	<g>
		<path class="st0" d="M10.9,4.9C10.6,5,10.3,5.1,10,5.1c0.3-0.2,0.6-0.5,0.7-0.8c-0.3,0.2-0.6,0.3-1,0.4C9.4,4.3,9,4.2,8.6,4.2
			C7.7,4.2,7,4.8,7,5.7c0,0.1,0,0.2,0,0.3C5.8,6,4.7,5.4,3.9,4.4C3.8,4.7,3.7,4.9,3.7,5.2c0,0.5,0.3,1,0.7,1.3
			c-0.2,0-0.5-0.1-0.7-0.2c0,0,0,0,0,0c0,0.7,0.5,1.4,1.2,1.5c-0.1,0-0.3,0.1-0.4,0.1c-0.1,0-0.2,0-0.3,0C4.4,8.4,5,8.9,5.7,8.9
			C5.2,9.3,4.5,9.6,3.8,9.6c-0.1,0-0.2,0-0.4,0c0.7,0.4,1.5,0.7,2.3,0.7c2.8,0,4.4-2.3,4.4-4.4c0-0.1,0-0.1,0-0.2
			C10.4,5.4,10.7,5.2,10.9,4.9z"/>
	</g>
</g>
<path class="st0" d="M7.1,14.1c-3.8,0-6.9-3.1-6.9-6.9c0-3.8,3.1-6.9,6.9-6.9S14,3.4,14,7.2C14,11,10.9,14.1,7.1,14.1z M7.1,0.7
	c-3.6,0-6.5,2.9-6.5,6.5s2.9,6.5,6.5,6.5c3.6,0,6.5-2.9,6.5-6.5S10.7,0.7,7.1,0.7z"/>
</svg>
